name rise35.5848peak51.9257fall54.8793.mot
datacolumns 19
datarows 26
range 8.53663200000000 8.57829900000000
endheader
time	ground_force1_vx	ground_force1_vy	ground_force1_vz	ground_force1_px	ground_force1_py	ground_force1_pz	ground_force2_vx	ground_force2_vy	ground_force2_vz	ground_force2_px	ground_force2_py	ground_force2_pz	ground_torque1_x	ground_torque1_y	ground_torque1_z	ground_torque2_x	ground_torque2_y	ground_torque2_z	
8.53663200000000	-5.91762000000000	41.65942700000000	-6.04101100000000	0.28455700000000	0.00000000000000	0.10617800000000	-40.04221600000000	792.80007200000000	-49.18016700000000	0.09577700000000	0.00000000000000	-0.07148300000000	0.00000000000000	-3.14926800000000	0.00000000000000	0.00000000000000	-14.67680000000000	0.00000000000000	
8.53831200000000	-6.54365700000000	48.75915900000000	-6.80188400000000	0.28877400000000	0.00000000000000	0.10667700000000	-40.98311300000000	790.91886899999997	-48.86662900000000	0.09481600000000	0.00000000000000	-0.07137500000000	0.00000000000000	-3.59356600000000	0.00000000000000	0.00000000000000	-14.66949400000000	0.00000000000000	
8.53996600000000	-7.06999400000000	55.92878500000000	-7.49567900000000	0.29255700000000	0.00000000000000	0.10713500000000	-41.94072600000000	788.89552000000003	-48.53398400000000	0.09385500000000	0.00000000000000	-0.07126400000000	0.00000000000000	-4.01207100000000	0.00000000000000	0.00000000000000	-14.66423000000000	0.00000000000000	
8.54163100000000	-7.47968200000000	63.07390100000000	-8.10609300000000	0.29597700000000	0.00000000000000	0.10756000000000	-42.91397100000000	786.72638500000005	-48.18208400000000	0.09289500000000	0.00000000000000	-0.07115000000000	0.00000000000000	-4.39558800000000	0.00000000000000	0.00000000000000	-14.66089500000000	0.00000000000000	
8.54331500000000	-7.76183600000000	70.12338800000001	-8.62209900000000	0.29909200000000	0.00000000000000	0.10795500000000	-43.90165500000000	784.40782400000001	-47.81080800000000	0.09193500000000	0.00000000000000	-0.07103300000000	0.00000000000000	-4.73760000000000	0.00000000000000	0.00000000000000	-14.65936300000000	0.00000000000000	
8.54496300000000	-7.91162500000000	77.03154800000000	-9.03803600000000	0.30194700000000	0.00000000000000	0.10832400000000	-44.90248000000000	781.93620499999997	-47.42006000000000	0.09097800000000	0.00000000000000	-0.07091300000000	0.00000000000000	-5.03438500000000	0.00000000000000	0.00000000000000	-14.65949100000000	0.00000000000000	
8.54662800000000	-7.92977800000000	83.77780100000000	-9.35324500000000	0.30457900000000	0.00000000000000	0.10867100000000	-45.91504500000000	779.30791699999997	-47.00977200000000	0.09002300000000	0.00000000000000	-0.07079000000000	0.00000000000000	-5.28487700000000	0.00000000000000	0.00000000000000	-14.66111800000000	0.00000000000000	
8.54829900000000	-7.82172300000000	90.36436600000000	-9.57135500000000	0.30702000000000	0.00000000000000	0.10899900000000	-46.93784700000000	776.51937699999996	-46.57990600000000	0.08907200000000	0.00000000000000	-0.07066400000000	0.00000000000000	-5.49033700000000	0.00000000000000	0.00000000000000	-14.66407000000000	0.00000000000000	
8.54996200000000	-7.59649100000000	96.81247000000000	-9.69934700000000	0.30929300000000	0.00000000000000	0.10930800000000	-47.96928200000000	773.56704200000001	-46.13045600000000	0.08812500000000	0.00000000000000	-0.07053400000000	0.00000000000000	-5.65388900000000	0.00000000000000	0.00000000000000	-14.66815900000000	0.00000000000000	
8.55163100000000	-7.26552400000000	103.15765300000000	-9.74649700000000	0.31142000000000	0.00000000000000	0.10960100000000	-49.00764900000000	770.44742299999996	-45.66144600000000	0.08718300000000	0.00000000000000	-0.07040200000000	0.00000000000000	-5.77997300000000	0.00000000000000	0.00000000000000	-14.67318000000000	0.00000000000000	
8.55329200000000	-6.84149500000000	109.44471900000001	-9.72332600000000	0.31341800000000	0.00000000000000	0.10988100000000	-50.05115400000000	767.15709200000003	-45.17293500000000	0.08624700000000	0.00000000000000	-0.07026600000000	0.00000000000000	-5.87379900000000	0.00000000000000	0.00000000000000	-14.67891500000000	0.00000000000000	
8.55496200000000	-6.33723800000000	115.72281200000000	-9.64062100000000	0.31530100000000	0.00000000000000	0.11014700000000	-51.09791000000000	763.69270100000006	-44.66501600000000	0.08531800000000	0.00000000000000	-0.07012800000000	0.00000000000000	-5.94082200000000	0.00000000000000	0.00000000000000	-14.68513100000000	0.00000000000000	
8.55664200000000	-5.76485200000000	122.04096800000001	-9.50861200000000	0.31708000000000	0.00000000000000	0.11040100000000	-52.14594400000000	760.05098999999996	-44.13781900000000	0.08439500000000	0.00000000000000	-0.06998600000000	0.00000000000000	-5.98628600000000	0.00000000000000	0.00000000000000	-14.69158500000000	0.00000000000000	
8.55830800000000	-5.13502300000000	128.44443999999999	-9.33632700000000	0.31876600000000	0.00000000000000	0.11064500000000	-53.19320100000000	756.22880399999997	-43.59151000000000	0.08348100000000	0.00000000000000	-0.06984000000000	0.00000000000000	-6.01487100000000	0.00000000000000	0.00000000000000	-14.69801900000000	0.00000000000000	
8.55996100000000	-4.45657400000000	134.97191400000000	-9.13115500000000	0.32036700000000	0.00000000000000	0.11087900000000	-54.23754800000000	752.22310900000002	-43.02629400000000	0.08257500000000	0.00000000000000	-0.06969200000000	0.00000000000000	-6.03043300000000	0.00000000000000	0.00000000000000	-14.70416500000000	0.00000000000000	
8.56162900000000	-3.73624500000000	141.65370200000001	-8.89860800000000	0.32189000000000	0.00000000000000	0.11110500000000	-55.27677800000000	748.03100199999994	-42.44241300000000	0.08167900000000	0.00000000000000	-0.06954000000000	0.00000000000000	-6.03586100000000	0.00000000000000	0.00000000000000	-14.70974400000000	0.00000000000000	
8.56331000000000	-2.97866400000000	148.51084200000000	-8.64226900000000	0.32334000000000	0.00000000000000	0.11132200000000	-56.30861900000000	743.64973099999997	-41.84015200000000	0.08079200000000	0.00000000000000	-0.06938400000000	0.00000000000000	-6.03302400000000	0.00000000000000	0.00000000000000	-14.71446800000000	0.00000000000000	
8.56496400000000	-2.18649400000000	155.55504099999999	-8.36389400000000	0.32472100000000	0.00000000000000	0.11153100000000	-57.33073600000000	739.07671400000004	-41.21983300000000	0.07991600000000	0.00000000000000	-0.06922600000000	0.00000000000000	-6.02281100000000	0.00000000000000	0.00000000000000	-14.71803900000000	0.00000000000000	
8.56662900000000	-1.36070600000000	162.78928300000001	-8.06362700000000	0.32603900000000	0.00000000000000	0.11173300000000	-58.34074000000000	734.30954799999995	-40.58182200000000	0.07905100000000	0.00000000000000	-0.06906400000000	0.00000000000000	-6.00523200000000	0.00000000000000	0.00000000000000	-14.72015300000000	0.00000000000000	
8.56831100000000	-0.50092600000000	170.20895400000001	-7.74030600000000	0.32729400000000	0.00000000000000	0.11192900000000	-59.33619400000000	729.34603300000003	-39.92652400000000	0.07819800000000	0.00000000000000	-0.06889800000000	0.00000000000000	-5.97957000000000	0.00000000000000	0.00000000000000	-14.72049800000000	0.00000000000000	
8.56996300000000	0.39416900000000	177.80329499999999	-7.39180700000000	0.32849100000000	0.00000000000000	0.11211900000000	-60.31461600000000	724.18418899999995	-39.25438600000000	0.07735600000000	0.00000000000000	-0.06873000000000	0.00000000000000	-5.94455900000000	0.00000000000000	0.00000000000000	-14.71875700000000	0.00000000000000	
8.57164500000000	1.32645200000000	185.55701099999999	-7.01539800000000	0.32963000000000	0.00000000000000	0.11230300000000	-61.27349500000000	718.82227100000000	-38.56589500000000	0.07652700000000	0.00000000000000	-0.06855800000000	0.00000000000000	-5.89857100000000	0.00000000000000	0.00000000000000	-14.71461000000000	0.00000000000000	
8.57329800000000	2.29798100000000	193.45190600000001	-6.60807500000000	0.33071400000000	0.00000000000000	0.11248200000000	-62.21028700000000	713.25878499999999	-37.86158200000000	0.07571000000000	0.00000000000000	-0.06838200000000	0.00000000000000	-5.83979600000000	0.00000000000000	0.00000000000000	-14.70773200000000	0.00000000000000	
8.57496300000000	3.31067100000000	201.46839499999999	-6.16686200000000	0.33174200000000	0.00000000000000	0.11265600000000	-63.12243300000000	707.49251200000003	-37.14201700000000	0.07490600000000	0.00000000000000	-0.06820300000000	0.00000000000000	-5.76640700000000	0.00000000000000	0.00000000000000	-14.69779600000000	0.00000000000000	
8.57662900000000	4.36603800000000	209.58682400000001	-5.68905300000000	0.33271600000000	0.00000000000000	0.11282500000000	-64.00735800000000	701.52251400000000	-36.40780900000000	0.07411500000000	0.00000000000000	-0.06802100000000	0.00000000000000	-5.67669500000000	0.00000000000000	0.00000000000000	-14.68447800000000	0.00000000000000	
8.57829900000000	5.46501400000000	217.78853100000001	-5.17239800000000	0.33363600000000	0.00000000000000	0.11299000000000	-64.86248600000000	695.34815400000002	-35.65960900000000	0.07333600000000	0.00000000000000	-0.06783600000000	0.00000000000000	-5.56917400000000	0.00000000000000	0.00000000000000	-14.66744900000000	0.00000000000000	
